# xmcd CD database file
#
# Track frame offsets:
#	150
#	12597
#	25717
#	38312
#	50900
#	59232
#	77690
#	89540
#	102362
#	115457
#	125722
#	136237
#	146985
#	158077
#	173795
#	190267
#
# Disc length: 2662 seconds
#
# Revision: 4
# Processed by: cddbd v1.5.2PL0 Copyright (c) Steve Scherf et al.
# Submitted via: CDex 1.70beta2
#
DISCID=e60a6410
DTITLE=Hank Williams - I Saw The Light - (Mercury version with bonustrack)
DYEAR=2001
DGENRE=Country Gospel
TTITLE0=I Saw The Light - (1948)
TTITLE1=Calling You - (1948)
TTITLE2=Dear Brother - (1949)
TTITLE3=Wealth Won't Save Your Soul - (1948)
TTITLE4=(I'm Gonna) Sing, Sing, Sing - (1951)
TTITLE5=Message To My Mother - (1955)
TTITLE6=How Can You Refuse Him Now - (1950)
TTITLE7=When God Comes and Gathers His Jewels - (1948)
TTITLE8=Jesus Remembered Me - (1949)
TTITLE9=A House of Gold - (1950)
TTITLE10=Thank God - (1948)
TTITLE11=The Angel of Death - (1954)
TTITLE12=The Prodigal Son - (1943)
TTITLE13=Thy Burdens Are Greater Than Mine - (1950)
TTITLE14=A Tramp On The Street - (1939)
TTITLE15=I'll Have A New Body (I'll Have A New Life) - (1949)
EXTD=YEAR: 2001
EXTT0=
EXTT1=
EXTT2=
EXTT3=
EXTT4=
EXTT5=
EXTT6=
EXTT7=
EXTT8=
EXTT9=
EXTT10=
EXTT11=
EXTT12=
EXTT13=
EXTT14=
EXTT15=
PLAYORDER=
